<?xml version="1.0" encoding="UTF-8" standalone="no"?>
<!DOCTYPE svg PUBLIC "-//W3C//DTD SVG 1.1//EN"
 "http://www.w3.org/Graphics/SVG/1.1/DTD/svg11.dtd">
<!-- Generated by graphviz version 2.47.0 (20210316.0004)
 -->
<!-- Title: dependencies Pages: 1 -->
<svg width="674pt" height="287pt"
 viewBox="0.00 0.00 674.00 287.00" xmlns="http://www.w3.org/2000/svg" xmlns:xlink="http://www.w3.org/1999/xlink">
<g id="graph0" class="graph" transform="scale(1 1) rotate(0) translate(4 283)">
<title>dependencies</title>
<polygon fill="white" stroke="transparent" points="-4,4 -4,-283 670,-283 670,4 -4,4"/>
<text text-anchor="start" x="312.01" y="-42.4" font-family="Times-12" font-weight="bold" font-size="14.00">Legend</text>
<polygon fill="#ffffb3" stroke="transparent" points="99,-10 99,-30 119,-30 119,-10 99,-10"/>
<text text-anchor="start" x="122.63" y="-15.4" font-family="Times-12" font-size="14.00"> &#160;Declarations</text>
<polygon fill="#8dd3c7" stroke="transparent" points="212,-10 212,-30 232,-30 232,-10 212,-10"/>
<text text-anchor="start" x="235.73" y="-15.4" font-family="Times-12" font-size="14.00"> &#160;Module</text>
<polygon fill="#80b1d3" stroke="transparent" points="298,-10 298,-30 318,-30 318,-10 298,-10"/>
<text text-anchor="start" x="321.78" y="-15.4" font-family="Times-12" font-size="14.00"> &#160;Bootstrap</text>
<polygon fill="#fdb462" stroke="transparent" points="395,-10 395,-30 415,-30 415,-10 395,-10"/>
<text text-anchor="start" x="418.67" y="-15.4" font-family="Times-12" font-size="14.00"> &#160;Providers</text>
<polygon fill="#fb8072" stroke="transparent" points="491,-10 491,-30 511,-30 511,-10 491,-10"/>
<text text-anchor="start" x="514.73" y="-15.4" font-family="Times-12" font-size="14.00"> &#160;Exports</text>
<g id="clust1" class="cluster">
<title>cluster_AppModule</title>
<polygon fill="none" stroke="black" stroke-dasharray="1,5" points="207,-146 207,-271 555,-271 555,-146 207,-146"/>
</g>
<g id="clust3" class="cluster">
<title>cluster_AppModule_imports</title>
<polygon fill="none" stroke="black" points="215,-154 215,-206 547,-206 547,-154 215,-154"/>
</g>
<g id="clust7" class="cluster">
<title>cluster_AuthModule</title>
<polygon fill="none" stroke="black" stroke-dasharray="1,5" points="8,-70 8,-138 316,-138 316,-70 8,-70"/>
</g>
<g id="clust12" class="cluster">
<title>cluster_AuthModule_providers</title>
<polygon fill="none" stroke="black" points="16,-78 16,-130 308,-130 308,-78 16,-78"/>
</g>
<g id="clust13" class="cluster">
<title>cluster_PostsModule</title>
<polygon fill="none" stroke="black" stroke-dasharray="1,5" points="324,-70 324,-138 476,-138 476,-70 324,-70"/>
</g>
<g id="clust18" class="cluster">
<title>cluster_PostsModule_providers</title>
<polygon fill="none" stroke="black" points="332,-78 332,-130 468,-130 468,-78 332,-78"/>
</g>
<g id="clust19" class="cluster">
<title>cluster_RecipesModule</title>
<polygon fill="none" stroke="black" stroke-dasharray="1,5" points="484,-70 484,-138 658,-138 658,-70 484,-70"/>
</g>
<g id="clust24" class="cluster">
<title>cluster_RecipesModule_providers</title>
<polygon fill="none" stroke="black" points="492,-78 492,-130 650,-130 650,-78 492,-78"/>
</g>
<!-- AuthModule -->
<g id="node1" class="node">
<title>AuthModule</title>
<polygon fill="#8dd3c7" stroke="black" points="310.55,-198 307.55,-202 286.55,-202 283.55,-198 223.45,-198 223.45,-162 310.55,-162 310.55,-198"/>
<text text-anchor="middle" x="267" y="-175.8" font-family="Times,serif" font-size="14.00">AuthModule</text>
</g>
<!-- AppModule -->
<g id="node4" class="node">
<title>AppModule</title>
<polygon fill="#8dd3c7" stroke="black" points="414.66,-263 411.66,-267 390.66,-267 387.66,-263 331.34,-263 331.34,-227 414.66,-227 414.66,-263"/>
<text text-anchor="middle" x="373" y="-240.8" font-family="Times,serif" font-size="14.00">AppModule</text>
</g>
<!-- AuthModule&#45;&gt;AppModule -->
<g id="edge1" class="edge">
<title>AuthModule&#45;&gt;AppModule</title>
<path fill="none" stroke="black" d="M267,-198.11C267,-217.34 267,-245 267,-245 267,-245 321.11,-245 321.11,-245"/>
<polygon fill="black" stroke="black" points="321.11,-248.5 331.11,-245 321.11,-241.5 321.11,-248.5"/>
</g>
<!-- PostsModule -->
<g id="node2" class="node">
<title>PostsModule</title>
<polygon fill="#8dd3c7" stroke="black" points="417.61,-198 414.61,-202 393.61,-202 390.61,-198 328.39,-198 328.39,-162 417.61,-162 417.61,-198"/>
<text text-anchor="middle" x="373" y="-175.8" font-family="Times,serif" font-size="14.00">PostsModule</text>
</g>
<!-- PostsModule&#45;&gt;AppModule -->
<g id="edge2" class="edge">
<title>PostsModule&#45;&gt;AppModule</title>
<path fill="none" stroke="black" d="M373,-198.11C373,-198.11 373,-216.99 373,-216.99"/>
<polygon fill="black" stroke="black" points="369.5,-216.99 373,-226.99 376.5,-216.99 369.5,-216.99"/>
</g>
<!-- RecipesModule -->
<g id="node3" class="node">
<title>RecipesModule</title>
<polygon fill="#8dd3c7" stroke="black" points="538.87,-198 535.87,-202 514.87,-202 511.87,-198 435.13,-198 435.13,-162 538.87,-162 538.87,-198"/>
<text text-anchor="middle" x="487" y="-175.8" font-family="Times,serif" font-size="14.00">RecipesModule</text>
</g>
<!-- RecipesModule&#45;&gt;AppModule -->
<g id="edge3" class="edge">
<title>RecipesModule&#45;&gt;AppModule</title>
<path fill="none" stroke="black" d="M487,-198.11C487,-217.34 487,-245 487,-245 487,-245 424.8,-245 424.8,-245"/>
<polygon fill="black" stroke="black" points="424.8,-241.5 414.8,-245 424.8,-248.5 424.8,-241.5"/>
</g>
<!-- AuthService -->
<g id="node5" class="node">
<title>AuthService</title>
<ellipse fill="#fdb462" stroke="black" cx="241" cy="-104" rx="59.11" ry="18"/>
<text text-anchor="middle" x="241" y="-99.8" font-family="Times,serif" font-size="14.00">AuthService</text>
</g>
<!-- AuthService&#45;&gt;AuthModule -->
<g id="edge4" class="edge">
<title>AuthService&#45;&gt;AuthModule</title>
<path fill="none" stroke="black" d="M261.77,-120.87C261.77,-120.87 261.77,-151.85 261.77,-151.85"/>
<polygon fill="black" stroke="black" points="258.27,-151.85 261.77,-161.85 265.27,-151.85 258.27,-151.85"/>
</g>
<!-- SignInProvider -->
<g id="node6" class="node">
<title>SignInProvider</title>
<ellipse fill="#fdb462" stroke="black" cx="94" cy="-104" rx="70.08" ry="18"/>
<text text-anchor="middle" x="94" y="-99.8" font-family="Times,serif" font-size="14.00">SignInProvider</text>
</g>
<!-- SignInProvider&#45;&gt;AuthModule -->
<g id="edge5" class="edge">
<title>SignInProvider&#45;&gt;AuthModule</title>
<path fill="none" stroke="black" d="M94,-122.01C94,-144.49 94,-180 94,-180 94,-180 213.34,-180 213.34,-180"/>
<polygon fill="black" stroke="black" points="213.34,-183.5 223.34,-180 213.34,-176.5 213.34,-183.5"/>
</g>
<!-- PostsService -->
<g id="node7" class="node">
<title>PostsService</title>
<ellipse fill="#fdb462" stroke="black" cx="400" cy="-104" rx="60.27" ry="18"/>
<text text-anchor="middle" x="400" y="-99.8" font-family="Times,serif" font-size="14.00">PostsService</text>
</g>
<!-- PostsService&#45;&gt;PostsModule -->
<g id="edge6" class="edge">
<title>PostsService&#45;&gt;PostsModule</title>
<path fill="none" stroke="black" d="M378.59,-120.87C378.59,-120.87 378.59,-151.85 378.59,-151.85"/>
<polygon fill="black" stroke="black" points="375.09,-151.85 378.59,-161.85 382.09,-151.85 375.09,-151.85"/>
</g>
<!-- RecipesService -->
<g id="node8" class="node">
<title>RecipesService</title>
<ellipse fill="#fdb462" stroke="black" cx="571" cy="-104" rx="70.62" ry="18"/>
<text text-anchor="middle" x="571" y="-99.8" font-family="Times,serif" font-size="14.00">RecipesService</text>
</g>
<!-- RecipesService&#45;&gt;RecipesModule -->
<g id="edge7" class="edge">
<title>RecipesService&#45;&gt;RecipesModule</title>
<path fill="none" stroke="black" d="M519.69,-116.55C519.69,-116.55 519.69,-151.74 519.69,-151.74"/>
<polygon fill="black" stroke="black" points="516.19,-151.74 519.69,-161.74 523.19,-151.74 516.19,-151.74"/>
</g>
</g>
</svg>
